<?xml version="1.0" standalone="no"?>
<!DOCTYPE svg PUBLIC "-//W3C//DTD SVG 20010904//EN"
 "http://www.w3.org/TR/2001/REC-SVG-20010904/DTD/svg10.dtd">
<svg version="1.0" xmlns="http://www.w3.org/2000/svg"
 width="512.000000pt" height="512.000000pt" viewBox="0 0 512.000000 512.000000"
 preserveAspectRatio="xMidYMid meet">

<g transform="translate(0.000000,512.000000) scale(0.100000,-0.100000)"
fill="#000000" stroke="none">
<path d="M1463 4588 c-42 -20 -55 -68 -44 -157 26 -203 139 -398 262 -451 42
-17 66 -21 118 -18 149 9 251 112 250 253 0 112 -46 192 -148 259 -138 91
-364 150 -438 114z"/>
<path d="M2705 4593 c-116 -16 -254 -74 -345 -146 -135 -106 -156 -279 -51
-399 58 -65 125 -92 216 -86 111 7 174 51 249 171 62 100 97 210 104 323 l5
90 -33 27 c-32 27 -62 31 -145 20z"/>
<path d="M1985 3786 c-176 -30 -323 -84 -427 -159 -115 -82 -239 -228 -320
-375 -42 -76 -63 -96 -113 -108 -16 -4 -62 -22 -102 -40 -212 -96 -398 -274
-500 -479 -37 -73 -80 -190 -84 -230 l-4 -30 97 -3 96 -3 17 58 c40 137 114
262 211 354 102 96 191 148 369 213 l100 37 48 93 c96 189 237 344 370 409
152 74 302 103 482 93 l120 -6 70 70 c38 38 67 71 64 74 -2 2 -40 12 -84 21
-107 23 -309 28 -410 11z"/>
<path d="M2572 3576 c-68 -66 -136 -123 -158 -132 -29 -12 -61 -16 -124 -14
-296 12 -452 -31 -581 -160 -79 -78 -116 -132 -189 -270 -65 -122 -77 -132
-222 -185 -164 -59 -234 -100 -319 -185 -57 -56 -85 -94 -112 -150 -56 -119
-59 -115 54 -118 l96 -3 27 55 c49 100 131 157 339 235 177 66 218 103 309
279 85 163 166 248 276 290 63 24 79 26 262 27 115 1 212 7 236 13 43 13 80
45 204 178 36 38 91 85 122 104 32 19 58 38 58 41 0 9 -55 50 -112 83 l-47 27
-119 -115z"/>
<path d="M2960 3421 c-41 -13 -84 -38 -107 -63 l-23 -24 53 -51 c85 -83 168
-144 237 -177 l65 -31 245 -1 c135 0 259 -4 275 -8 231 -60 261 -88 500 -485
l130 -216 113 -3 c73 -2 112 1 112 8 0 6 -22 41 -50 79 -27 37 -100 151 -161
252 -136 225 -187 297 -259 370 -71 72 -126 106 -225 140 -127 43 -215 53
-408 46 -95 -3 -191 -2 -215 3 -48 8 -121 55 -196 125 -27 25 -52 45 -55 44
-3 0 -17 -4 -31 -8z"/>
<path d="M2649 3156 c-31 -22 -64 -46 -74 -51 -14 -9 -2 -24 88 -112 105 -102
212 -180 312 -228 101 -47 165 -57 385 -61 180 -2 213 -5 262 -24 84 -31 148
-95 219 -216 l61 -104 104 0 c58 0 104 4 104 9 0 13 -133 240 -193 329 -67
101 -115 146 -174 166 -76 25 -189 35 -294 24 -98 -9 -218 -4 -304 14 -102 21
-248 112 -375 233 l-65 62 -56 -41z"/>
<path d="M2057 3054 c-3 -3 25 -32 61 -63 37 -32 144 -129 237 -215 286 -266
408 -347 580 -387 78 -18 134 -21 418 -26 217 -4 327 -2 327 5 0 22 -67 108
-100 127 -31 18 -53 20 -210 21 -262 1 -394 32 -556 128 -121 72 -187 124
-309 245 -60 60 -130 123 -154 140 -43 31 -46 31 -166 31 -67 0 -124 -3 -128
-6z"/>
<path d="M1861 2853 c-22 -42 -41 -79 -41 -83 0 -4 30 -34 68 -67 37 -33 137
-124 222 -202 l154 -141 138 0 c76 0 138 4 138 8 0 4 -38 39 -85 76 -47 37
-137 116 -201 174 -147 137 -269 246 -315 283 l-36 28 -42 -76z"/>
<path d="M1655 2578 c-56 -42 -118 -72 -211 -102 -85 -28 -195 -85 -202 -104
-3 -9 86 -12 368 -12 347 0 372 1 359 17 -30 36 -252 233 -263 232 -6 0 -29
-14 -51 -31z"/>
<path d="M29 2151 c-36 -37 -36 -51 1 -218 37 -169 78 -291 145 -428 171 -349
442 -621 790 -795 210 -105 395 -158 621 -180 146 -13 1802 -13 1948 0 226 22
412 76 621 180 164 82 292 171 420 292 267 253 431 549 515 931 37 167 37 181
1 218 l-29 29 -2502 0 -2502 0 -29 -29z m345 -173 c16 -15 37 -60 60 -131 144
-437 492 -775 928 -901 102 -29 271 -56 356 -56 73 0 109 -25 118 -81 5 -28 1
-41 -21 -67 -27 -32 -27 -32 -120 -32 -179 0 -420 56 -603 141 -389 180 -691
516 -828 922 -44 129 -44 167 -3 201 38 32 80 33 113 4z"/>
</g>
</svg>
